# xmcd
#
# Track frame offsets:
#	150
#	7507
#	16154
#	26053
#	36625
#	45797
#	56199
#	64870
#	74757
#	82814
#	92484
#	101044
#	109383
#	117239
#	129117
#	141395
#	154916
#	169124
#	180946
#	189271
#	200779
#	210030
#	220239
#
# Disc length: 3101 seconds
#
# Revision: 0
# Processed by: cddbd v1.5.2PL0 Copyright (c) Steve Scherf et al.
# Submitted via: EZCDAudioConverter 2.1.7.1
#
DISCID=360c1b17
DTITLE=Roger Miller - The Chronogical Classics 1965-1967
DYEAR=1900
DGENRE=Honky-Tonk
TTITLE0=Hey Good Lookin'
TTITLE1=England Swings
TTITLE2=I've Been A Long Time Leaving
TTITLE3=Husbands and Wives
TTITLE4=Train Of Life
TTITLE5=Less and Less
TTITLE6=Dad Blame Anything A Man Can't Quit
TTITLE7=You're My Kingdom
TTITLE8=Billy Bayou
TTITLE9=Working Girl
TTITLE10=Every Which-A-Way
TTITLE11=My Uncle Used To Love Me But She Died
TTITLE12=Home
TTITLE13=Absense
TTITLE14=Our Little Love
TTITLE15=Ruby (Don't Take Your Love To Town)
TTITLE16=Green Green Grass Of Home
TTITLE17=Walkin' In Sunshine
TTITLE18=You Don't Have To Be So Nice
TTITLE19=A Million Years Or So
TTITLE20=I'd Come Back To Me
TTITLE21=Pardon This Coffin'
TTITLE22=The Riddle
EXTD=
EXTT0=
EXTT1=
EXTT2=
EXTT3=
EXTT4=
EXTT5=
EXTT6=
EXTT7=
EXTT8=
EXTT9=
EXTT10=
EXTT11=
EXTT12=
EXTT13=
EXTT14=
EXTT15=
EXTT16=
EXTT17=
EXTT18=
EXTT19=
EXTT20=
EXTT21=
EXTT22=
PLAYORDER=
